<svg preserveAspectRatio="none" width="100%" height="100%" overflow="visible" style="display: block;" viewBox="0 0 89.6994 89.6994" fill="none" xmlns="http://www.w3.org/2000/svg">
<g id="Group 837">
<circle id="Ellipse 2167" cx="44.8497" cy="44.8497" r="44.3497" stroke="var(--stroke-0, #242A41)"/>
<g id="Frame">
<path id="Vector" d="M35.5749 20.2952C35.4001 20.1884 35.2593 20.0339 35.1692 19.8499C35.079 19.6659 35.0431 19.46 35.0658 19.2564C35.0884 19.0528 35.1686 18.8598 35.2969 18.7001C35.4253 18.5404 35.5965 18.4205 35.7905 18.3546C39.7189 16.9956 43.9009 16.53 48.032 16.9916C52.1631 17.4532 56.1393 18.8304 59.6708 21.023C59.8022 21.1014 59.9154 21.2069 60.0029 21.3324C60.0903 21.458 60.1501 21.6007 60.1781 21.7511C60.2062 21.9016 60.2019 22.0562 60.1655 22.2049C60.1292 22.3535 60.0616 22.4927 59.9673 22.6132C56.8336 26.5898 53.0078 29.9682 48.674 32.5858C45.1667 27.6601 40.7137 23.482 35.5749 20.2952V20.2952ZM44.8197 34.6073C40.8735 29.2456 35.6971 24.9103 29.7261 21.9663C29.5498 21.8865 29.3563 21.852 29.1633 21.8661C28.9702 21.8803 28.7838 21.9425 28.621 22.0472C23.7898 25.5269 20.1778 30.4403 18.298 36.0897C18.2535 36.2331 18.2395 36.3842 18.2568 36.5333C18.2741 36.6824 18.3224 36.8263 18.3985 36.9557C18.4746 37.0851 18.5769 37.1972 18.6988 37.2848C18.8208 37.3723 18.9597 37.4335 19.1066 37.4643C21.9232 38.0721 24.7963 38.3793 27.6777 38.3807C33.5985 38.3881 39.4493 37.1002 44.8197 34.6073V34.6073ZM72.7969 41.8037C72.1075 35.5518 69.3355 29.7135 64.9266 25.2276C64.8178 25.1216 64.6882 25.0392 64.5461 24.9855C64.4039 24.9318 64.2522 24.908 64.1004 24.9156C63.9487 24.9232 63.8001 24.962 63.664 25.0296C63.5279 25.0972 63.4072 25.1921 63.3095 25.3085C59.9011 29.6581 55.7268 33.3484 50.992 36.1975C52.4689 38.7603 53.6964 41.459 54.6576 44.2564C58.515 43.2134 62.4939 42.6877 66.4899 42.6931C68.2011 42.6971 69.9108 42.7961 71.611 42.9896C71.7709 43.0066 71.9325 42.9876 72.0841 42.934C72.2358 42.8804 72.3735 42.7936 72.4872 42.6799C72.6009 42.5662 72.6877 42.4285 72.7413 42.2769C72.7949 42.1253 72.8139 41.9636 72.7969 41.8037V41.8037ZM55.8435 48.4072C56.6354 51.8092 57.0333 55.2911 57.0294 58.7841C57.0274 62.1209 56.6568 65.4473 55.9243 68.7027C55.8763 68.9029 55.8866 69.1127 55.954 69.3072C56.0214 69.5017 56.1431 69.6729 56.3047 69.8005C56.4663 69.928 56.661 70.0067 56.8658 70.0271C57.0707 70.0475 57.2771 70.0088 57.4607 69.9156C61.5505 67.87 65.0784 64.8558 67.7373 61.1353C70.3961 57.4148 72.1053 53.1008 72.716 48.5689C72.7349 48.4271 72.7253 48.2831 72.688 48.145C72.6506 48.007 72.5861 47.8778 72.4983 47.7649C72.4105 47.652 72.3012 47.5578 72.1766 47.4876C72.052 47.4174 71.9147 47.3726 71.7727 47.356C70.022 47.1168 68.2568 46.9997 66.4899 47.0056C62.8948 47.0012 59.3149 47.4724 55.8435 48.4072V48.4072ZM50.5338 45.6041C49.6796 43.05 48.5594 40.5928 47.1916 38.2729C41.1003 41.1899 34.4313 42.7006 27.6777 42.6931C24.5158 42.6914 21.363 42.3572 18.2711 41.6959C18.1213 41.6648 17.9666 41.666 17.8173 41.6993C17.6681 41.7326 17.5276 41.7973 17.4052 41.889C17.2828 41.9808 17.1814 42.0976 17.1076 42.2316C17.0339 42.3656 16.9894 42.5137 16.9773 42.6662C16.9234 43.3849 16.8965 44.1127 16.8965 44.8494C16.8951 48.6872 17.6841 52.4842 19.2144 56.0038C20.7446 59.5234 22.9833 62.6901 25.7909 65.3067C25.9066 65.4178 26.0462 65.5009 26.199 65.5498C26.3518 65.5986 26.5138 65.6118 26.6725 65.5884C26.8312 65.565 26.9824 65.5056 27.1146 65.4147C27.2468 65.3238 27.3564 65.2039 27.4351 65.0641C32.6941 56.1364 40.8429 49.2712 50.5338 45.6041V45.6041ZM30.8311 67.8133C30.7592 67.9369 30.7126 68.0736 30.694 68.2154C30.6755 68.3571 30.6853 68.5012 30.7229 68.6392C30.7605 68.7771 30.8252 68.9062 30.9132 69.0189C31.0012 69.1317 31.1107 69.2257 31.2354 69.2957C35.4126 71.6547 40.1303 72.8898 44.9275 72.8805C46.5635 72.8876 48.1967 72.7433 49.806 72.4492C49.9923 72.4183 50.1664 72.3365 50.3091 72.2128C50.4518 72.0891 50.5575 71.9284 50.6146 71.7484C52.0126 67.5693 52.7227 63.1908 52.7169 58.7841C52.7154 55.7469 52.381 52.7191 51.7197 49.7548C42.8909 53.1989 35.5154 59.5751 30.8311 67.8133V67.8133Z" fill="var(--fill-0, #242A41)"/>
</g>
</g>
</svg>
