<svg preserveAspectRatio="none" width="100%" height="100%" overflow="visible" style="display: block;" viewBox="0 0 89.6994 89.6994" fill="none" xmlns="http://www.w3.org/2000/svg">
<g id="Group 838">
<circle id="Ellipse 2166" cx="44.8497" cy="44.8497" r="44.3497" stroke="var(--stroke-0, #242A41)"/>
<g id="Frame">
<path id="Vector" d="M28.7107 33.8029C31.49 33.8029 33.7431 31.5498 33.7431 28.7705C33.7431 25.9912 31.49 23.7382 28.7107 23.7382C25.9314 23.7382 23.6783 25.9912 23.6783 28.7705C23.6783 31.5498 25.9314 33.8029 28.7107 33.8029Z" fill="var(--fill-0, #242A41)"/>
<path id="Vector_2" d="M38.4948 37.6163V65.5358H47.1635V51.729C47.1635 48.0858 47.8489 44.5576 52.366 44.5576C56.8211 44.5576 56.8763 48.7229 56.8763 51.959V65.5381H65.5496V50.2271C65.5496 42.7061 63.9304 36.9263 55.1398 36.9263C50.9194 36.9263 48.0904 39.2424 46.9335 41.4342H46.8162V37.6163H38.4948V37.6163ZM24.3683 37.6163H33.0508V65.5358H24.3683V37.6163Z" fill="var(--fill-0, #242A41)"/>
</g>
</g>
</svg>
