<svg preserveAspectRatio="none" width="100%" height="100%" overflow="visible" style="display: block;" viewBox="0 0 89.6994 89.6994" fill="none" xmlns="http://www.w3.org/2000/svg">
<g id="Group 836">
<circle id="Ellipse 2168" cx="44.8497" cy="44.8497" r="44.3497" stroke="var(--stroke-0, #242A41)"/>
<path id="Vector" d="M49.5009 26.6841C50.6296 35.3308 51.7482 43.9789 52.8563 52.6284L53.83 52.7153C54.0127 52.136 55.2219 48.3384 56.3866 44.6841C56.9689 42.857 57.5404 41.066 57.9657 39.7319C58.1783 39.0651 58.3543 38.5124 58.4774 38.1264C58.5389 37.9337 58.5871 37.7822 58.62 37.6792C58.6364 37.6276 58.6496 37.5876 58.6581 37.561C58.6623 37.5478 58.6647 37.5374 58.6669 37.5307C58.6679 37.5274 58.6693 37.5246 58.6698 37.5229L58.6708 37.5219V37.521C60.7227 32.0487 64.5682 27.0538 71.6981 26.726L60.7479 53.5971C59.6087 56.314 57.9934 58.886 55.705 60.7758C53.5102 62.5883 50.6749 63.7882 46.9901 63.8755C46.9677 63.7203 46.9402 63.526 46.9071 63.2973C46.8137 62.6509 46.6797 61.727 46.5194 60.6167C46.1987 58.3953 45.7707 55.4276 45.3417 52.4438C44.9126 49.4599 44.4821 46.4595 44.1571 44.1723C43.9946 43.0288 43.8582 42.0639 43.7616 41.3686C43.7133 41.0209 43.675 40.741 43.6483 40.5405C43.635 40.4402 43.6252 40.3602 43.618 40.3022C43.6107 40.2433 43.6076 40.2192 43.6073 40.2163L42.6366 40.0825C42.5411 40.3545 41.2949 43.5867 40.0653 46.769C39.4521 48.356 38.8452 49.9254 38.3915 51.0981C38.1646 51.6844 37.9764 52.1716 37.8446 52.5122C37.7787 52.6825 37.7265 52.8166 37.6913 52.9077C37.6737 52.953 37.6603 52.9878 37.6512 53.0112C37.6468 53.0227 37.6438 53.0316 37.6415 53.0376L37.6385 53.0444C35.4598 58.5767 31.3986 63.6604 23.9716 63.8784L17.8417 26.728C22.6348 27.0309 28.237 30.9561 28.828 37.2212L28.8534 37.5337C28.8535 37.535 28.8533 37.5367 28.8534 37.5385C28.8538 37.5453 28.8546 37.5556 28.8553 37.5688C28.8568 37.5953 28.8593 37.6348 28.8622 37.686C28.868 37.7888 28.8767 37.9399 28.8876 38.1323C28.9093 38.5173 28.94 39.069 28.9774 39.7339C29.0523 41.0638 29.1525 42.8487 29.2538 44.6674C29.4567 48.3101 29.6634 52.0735 29.6805 52.6147L30.6464 52.7798L36.5458 37.5151L36.5477 37.5102C38.6307 31.9727 42.4647 26.887 49.5009 26.6841Z" fill="var(--fill-0, #242A41)" stroke="var(--stroke-0, #242A41)"/>
</g>
</svg>
